<?xml version="1.0" encoding="UTF-8"?>
<svg version="1.1" viewBox="0 0 1440 1440" width="1280" height="1280" xmlns="http://www.w3.org/2000/svg">
<path transform="translate(0)" d="m0 0h1440v1440h-1440z" fill="#dae2ff"/>
<path transform="translate(867,166)" d="m0 0h14l15 2 17 5 16 8 13 9 16 16 12 17 18 27 3 7 1 7-4 10-4 5-6 4-10 2-10-3-8-7-8-11-14-21-11-14-10-8-12-6-12-3h-19l-13 4-11 6-36 26-20 14-14 10-20 14-17 12-14 10-17 12-20 14-17 12-18 13-19 13-15 11-16 11-36 26-19 13-15 11-16 11-18 13-51 36-10 7-5 3h-2v3h702l-4-6-10-14-12-16-10-14-52-72-10-14-8-11-12-17-7-12-1-10 3-9 4-5h2v-2l10-4h8l7 3 8 7 48 68 14 19 13 18 20 28 12 16 12 17 13 18 12 17 7 9 8 4 11 7 10 8 16 16 10 14 10 19 6 18 3 19v520l-4 21-6 16-8 16-10 14-12 13-11 9-14 9-16 8-19 6-17 3h-62l-8-4-6-7-3-10v-2h-50l-2-1-1 8-4 7-6 5-4 2-8 1-587 1-5 3h-11l-7-3-85-1-23-2-17-4-13-5-17-9-14-10-18-18-11-16-8-16-6-18-3-16-1-476 1-47 4-20 6-16 9-17 11-15 11-12 14-11 13-8 18-8 21-6h2l2-5 14-20 9-13 14-20 12-17 28-40 12-17 13-19 8-11 11-16 12-17 13-18 13-19 16-23 10-14 9-11 8-7 11-9 16-8 15-5 12-2h27l16 3 13 5 13 7 23 16 15 10 38 26 4-1 20-14 18-13 19-13 16-12 18-12 17-12 18-13 18-11 21-7z" fill="#FD7301"/>
<path transform="translate(867,166)" d="m0 0h14l15 2 17 5 16 8 13 9 16 16 12 17 18 27 3 7 1 7-4 10-4 5-6 4-10 2-10-3-8-7-8-11-14-21-11-14-10-8-12-6-12-3h-19l-13 4-11 6-36 26-20 14-14 10-20 14-17 12-14 10-17 12-20 14-17 12-18 13-19 13-15 11-16 11-36 26-19 13-15 11-16 11-18 13-51 36-10 7-5 3h-2v3h702l-4-6-10-14-12-16-10-14-52-72-10-14-8-11-12-17-7-12-1-10 3-9 4-5h2v-2l10-4h8l7 3 8 7 48 68 14 19 13 18 20 28 12 16 12 17 13 18 12 17 7 9 8 4 11 7 10 8 16 16 10 14 10 19 6 18 3 19v520l-4 21-6 16-8 16-10 14-12 13-11 9-14 9-16 8-19 6-17 3h-62l-8-4-6-7-2-5v-13l5-9 6-5 2-1 58-1 16-3 16-6 10-6 6-5h2v-2l5-4 9-12 8-15 4-14 1-7 1-21v-86l-230-1-26-1-20-4-20-7-17-9-12-8-11-10-8-7-10-12-9-14-9-19-6-19-4-22v-24l5-28 8-22 12-21 11-13 9-10 11-9 13-9 18-10 18-6 18-4h118l6 3 7 8 3 8-1 10-6 9-9 6-98 1-16 2-17 4-16 8-9 6-8 7h-2l-2 4-8 9-10 18-4 11-4 16-1 6v12l4 23 7 17 6 11 7 9 12 12 13 9 13 6 17 5 15 2h241l1-63v-135l-14 1-44-1-7-3-5-5-4-6-1-4v-7l3-9 10-9 3-1 56-1 3-1v-93l-1-22-3-15-8-17-9-12-3-3v-2l-4-2-8-7-14-8-14-5-17-2-720-1v660h583l6 3 7 8 3 8v7l-3 8-6 7-6 3-8 1-587 1-5 3h-11l-7-3-85-1-23-2-17-4-13-5-17-9-14-10-18-18-11-16-8-16-6-18-3-16-1-476 1-47 4-20 6-16 9-17 11-15 11-12 14-11 13-8 18-8 21-6h2l2-5 14-20 9-13 14-20 12-17 28-40 12-17 13-19 8-11 11-16 12-17 13-18 13-19 16-23 10-14 9-11 8-7 11-9 16-8 15-5 12-2h27l16 3 13 5 13 7 23 16 15 10 38 26 4-1 20-14 18-13 19-13 16-12 18-12 17-12 18-13 18-11 21-7z" fill="#22202F"/>
<path transform="translate(864,211)" d="m0 0h19l12 3 12 6 10 8 10 12 23 34 8 7 10 3 10-2 5-3 14 19 11 14v4l2 1-5 5-3 9 1 10 7 12 12 17 12 16 9 13 10 14 39 54 11 15 14 19 8 11 3 5-1 1h-702l-1-2 3-3 11-7 18-13 20-14 18-13 17-12 20-14 34-24 36-26 19-13 18-13 23-16 18-13 20-14 51-36 20-14 18-13 16-11 19-14 19-13 14-7z" fill="#FFD937"/>
<path transform="translate(301,565)" d="m0 0h76l1 127v416l-1 116-1 1-67 1-21-1-14-4-16-8-11-8-7-6-10-13-7-15-4-16-1-7-1-43v-426l1-43 4-16 9-17 8-10 9-9 15-10 12-5 14-3z" fill="#FD7301"/>
<path transform="translate(963,756)" d="m0 0h118l6 3 7 8 3 8-1 10-6 9-9 6-98 1-16 2-17 4-16 8-9 6-8 7h-2l-2 4-8 9-10 18-4 11-4 16-1 6v12l4 23 7 17 6 11 7 9 12 12 13 9 13 6 17 5 15 2 243 1v44h-257l-20-4-20-7-17-9-12-8-11-10-8-7-10-12-9-14-9-19-6-19-4-22v-24l5-28 8-22 12-21 11-13 9-10 11-9 13-9 18-10 18-6z" fill="#030202"/>
<path transform="translate(272,570)" d="m0 0 3 1h-2v2h2l-3 58-1 69v141l-1 9 1 7v47l-1 30v15l1 13v37l1 35v28l-1 42v20l1 39 2 35 2 19-1 2 2 2-5-1-16-8-10-8-6-5-10-13-7-15-4-16-1-7-1-43v-426l1-43 4-16 9-17 8-10 9-9 15-10z" fill="#F75006"/>
<path transform="translate(549,254)" d="m0 0 16 1 13 5 14 9 16 11 28 19 9 6-5 5-14 10-19 13-16 12-19 13-20 14-18 13-19 13-36 26-19 13-14 10-34 24-18 13-19 13-18 13-14 9-5 1 1-5 11-17 12-17 11-16 16-23 11-16 13-19 12-17 14-20 17-25 33-48 12-17 8-9 12-9 11-5 7-2z" fill="#279EFC"/>
<path transform="translate(978,833)" d="m0 0 14 1 15 4 16 8 10 9 9 13 6 14 2 9v21l-4 15-6 12-7 9-8 8-14 9-16 6-6 1h-15l-17-4-12-6-10-8-7-7-7-11-5-11-4-15v-16l5-17 8-15 11-12 10-7 12-6 12-3z" fill="#030203"/>
<path transform="translate(864,211)" d="m0 0h19l12 3 12 6 10 8 10 12 23 34 8 7 10 3 10-2 5-3 14 19 11 14v4l2 1-5 5-3 9 1 10 7 12 12 17 12 16 9 13 10 14 39 54 11 15 14 19 8 11 3 5-1 1h-702l-1-2 3-3 11-7 18-13 20-14 18-13 17-12 20-14 34-24 36-26 19-13 18-13 23-16 18-13 20-14 51-36 20-14 18-13 16-11 19-14 19-13 14-7zm4 7-13 4-8 5-6 3-12 9-9 7-8 6-2 1v2l-5 2-2 1v2l-4 1-12 9v2l-5 1v2l-5 2-2 1v2l-5 1v2l-5 2-8 5-6 4v2l-4 1v2l-4 1-8 6v2l-4 1-10 7-2 1v2l-5 2v2l-4 1v2l-6 2v2l-5 2-1 3-4 1v2l-4 1-4 2v2l-4 1v2l-4 1-11 7v2l-4 1v2l-5 2v2l-4 1v2l-4 1-10 7-10 6-4 4-3 1v2l-5 2-4 3v2l-6 2-9 6-1 2-3 1v2l-5 2-10 7-2 1v2l-4 2-9 5-7 6-7 4-10 7-8 6-3 3-5 3-3 2v2l-4 2-11 7-1 3-4 1v2l-4 1-4 2v2l-4 2v2l-4 1-9 8-3 1v2l-6 2-6 5v4l16 2h9l10 1 7 1 55 2 51-1 187 2h190l65-1 13-1h25l14-2 3-3-3-7-3-5-5-5-6-12-8-11-8-12h-2l-2-5-6-8-5-8h-2l-2-4-18-26-12-16-3-5h-2l-1-4-10-14-7-10-5-9-4-12 1-9 3-5 5-8-3-7-5-7-4-1v-2l-8-1h-18l-7-3h-3v-2l-5-5h-2l-2-5h-2v-2h-2l-2-4-7-11-5-6-4-7-7-10-1-2h-2l-2-4h-2l-1-3-7-5-9-4-12-2z" fill="#FED93E"/>
<path transform="translate(814,596)" d="m0 0h276l6 5 3 7-2 10-4 5-2 1h-279l-6-7-1-3v-7l3-7z" fill="#F7F7F7"/>
<path transform="translate(987,749)" d="m0 0 61 1 27 1 12 4 5 5 6 8 2 13 1 5-3 7-5 6-4 2h-4l2-4 7-10 2-6-1-10-5-8-6-5-3-1h-118l-25 6-15 6-19 11-13 10-11 10-9 11-8 11-9 16-8 22-5 28v24l4 22 8 24 11 21 10 13 10 11 8 7 12 9 18 10 12 5 16 5 16 3 26 1 230 1 1 1v86l-2 2-1-8 1-72-7-1-2-2h-24l-7 1-4-1-2 1-4-1-10 1-157-1-29-1-20-2-18-4-16-6-9-4-10-6-11-8v-2l-6-3v-2l-4-2v-2h-2v-2l-5-2v-2l-4-2-8-11-7-10-5-9-6-14-5-19-1-11-2-10v-30l2-14v-7l6-20 6-13 4-7 3-3 6-10 18-18 4-2 2-4 5-7 6-5 7-4 16-9 8-4 20-6 11-2z" fill="#FD7C0D"/>
<path transform="translate(973,864)" d="m0 0h15l11 4 6 4 7 7 7 13 1 4v12l-4 11-6 9-9 8-8 4-4 1h-16l-10-4-6-4-7-7-6-12-1-4v-16l4-10 6-8 8-7 8-4z" fill="#FE7401"/>
<path transform="translate(1163,756)" d="m0 0h60v44l-15 1-44-1-7-3-5-5-4-6-1-4v-7l3-9 10-9z" fill="#030202"/>
<path transform="translate(973,828)" d="m0 0h14l16 3 9 4v2l6 1 10 6 6 5v2l4 1 4 6 4 10 2 4v4h2l2 6 2 30 1 7-4 14-6 12-3 1-1 4h-2l-2 4-4 4h-2v2l-7 4-3 3-16 7-8 3-9 2h-5v-2h-12l-11-2-8-4-7-3-10-5-6-7-8-7-6-9-3-5-2-9 1-2h-2l-2-13v-17l1-11 3-9 4-9 3-5h2l2-4h2v-3l8-7 9-7 16-8 6-2zm5 5-17 3-10 4-11 7-12 11-6 9-6 13-4 14v16l5 18 8 15 11 12 12 9 12 5 14 3h15l12-3 12-5 13-9 10-10 8-13 4-11 2-9v-21l-3-11-5-12-7-10-7-8-9-6-12-6-15-4z" fill="#FE7D0E"/>
<path transform="translate(658,594)" d="m0 0 47 1 5 4 2 5v10l-4 7-4 2h-52l-6-4-3-7 1-9 4-6 3-2z" fill="#F7F7F7"/>
<path transform="translate(973,864)" d="m0 0h15l11 4 6 4 7 7 7 13 1 4v12l-4 11-6 9-9 8-8 4-4 1h-16l-10-4-6-4-7-7-6-12-1-4v-16l4-10 6-8 8-7 8-4zm5 2-1 3-8 1-5 3-3 4-5 3-6 9-1 4v12l3 10 6 10 7 5 13 3 11-1 10-5 5-3v-2h2l5-11 1-6v-8l-2-7-3-8h-2l-2-4-7-5-11-4h-2v-2l2-1z" fill="#FE7E0E"/>
<path transform="translate(888,915)" d="m0 0h2l2 9h2l2 7v4h2l2 4 3 2 5 10 2 5 4 5 6 2 4 6 1 3 5 2v2l4 1 1 2 18 8 1 1 17 3 4 1h14l15-1h17l57 3 10 1v1l-5 1v1h-112l-14-3-16-6-11-6-11-9-13-13-8-13-8-18-2-7z" fill="#FE7E0E"/>
<path transform="translate(983,800)" d="m0 0h98l-1 2-88 1 8 1v1l-15 1-16 2-10 4-13 4-9 4-7 2v2l-10 6-3 3h-2l-2 7-9 12-3 7-2 1-2 8-2 7-5 13-1 18-2 6h-1l-1-8v-12l3-15 5-16 9-17 9-11 4-5 11-9 15-9 12-5 19-4z" fill="#FD780D"/>
<path transform="translate(1220,1147)" d="m0 0h1v12l-4 14-9 17-12 14h-2v2l-11 8-14 7-13 4-12 2-58 1-6 2 4-4 10-2 13-1h27l25-4 10-6 12-6 10-9 6-5 7-9 3-5 7-12 5-15z" fill="#FD7A0D"/>
<path transform="translate(813,624)" d="m0 0h277v2l-30 1h-137l-107-1z" fill="#FFAA24"/>
<path transform="translate(1220,745)" d="m0 0h2v10l-3 1-56 1-7 4-6 7-2 7v7l3 8 2 4 4 2 7 3v2h-8l-6-4v-2h-2v-2l-3-1v-2h-2l-1-20 5-6h2l1-4 13-8 6-2 34-1 2 1h9l5-3z" fill="#FD7B0D"/>
<path transform="translate(422,566)" d="m0 0h186v1l-88 1v1h-6l-2-2v2h-36l-1-1-16-1v2h-3v-2l-5 3h-12l-9 1-4 11-2 11-1 11h-1z" fill="#FE820E"/>
<path transform="translate(1154,568)" d="m0 0h7l15 6 11 7 11 9 11 14 8 15 4 13v25h-1l-2-15-2-5-1-12h-2l-2-7-4-4-5-9-1-6h-2l-2-4-6-3-9-8-4-4-5-2-2-3-10-1v-2l-5-2z" fill="#FD7A0D"/>
<path transform="translate(301,565)" d="m0 0h74l1 1v10l-3-3-10-4h-2v-2l-4 2-5 1h-10l-2-1h-10l-4-1-13 1-5 1-15 2-6 2-7-1-2-3 1-2 10-2z" fill="#FC720C"/>
<path transform="translate(375,1203)" d="m0 0h1v22l-67 1-21-1-11-3 2-4h7l9 2 35 2 37-2 7-2z" fill="#FB6E0B"/>
<path transform="translate(432,518)" d="m0 0h116v1l-41 1-3 1-15 1-8-1-17 1-13-1-3-1-16-1z" fill="#030202"/>
<path transform="translate(1061,566)" d="m0 0h84l4 2-9 1-5-1h-15l-5 2h-23l-21-1v-1l-10-1z" fill="#FF830F"/>
<path transform="translate(422,1212)" d="m0 0 1 2 4 2 4 4 9 2 31 1h17v2h-67z" fill="#FE820E"/>
<path transform="translate(373,565)" d="m0 0 3 1v10l-3-3-10-4h-2v-2l-4 2-5 1h-10l-2-1h-10l-3-1v-2z" fill="#FE820E"/>
<path transform="translate(375,1203)" d="m0 0h1v22l-46-1 1-2 36-2 7-2z" fill="#FF830F"/>
<path transform="translate(1077,1231)" d="m0 0h2l-2 5-3 6-1 8-1-2h-50v-1l47-1-1-3 3-6 4-5z" fill="#FE8110"/>
<path transform="translate(480,566)" d="m0 0h30v2l-7 1h-27v-2z" fill="#FE810D"/>
<path transform="translate(373,565)" d="m0 0 3 1v10l-3-3-10-5v-2z" fill="#FF830F"/>
<path transform="translate(239,1193)" d="m0 0 7 6 5 5 2 3-5-1-8-7-2-5z" fill="#FB6703"/>
<path transform="translate(1220,992)" d="m0 0h1v6h-22v-1h14v-2z" fill="#FF830F"/>
<path transform="translate(1212,801)" d="m0 0h9v6l-7-1z" fill="#FF830F"/>
<path transform="translate(590,392)" d="m0 0h7l-1 3-7 5-3-1 3-3h2z" fill="#09080B"/>
<path transform="translate(498,566)" d="m0 0h12v2l-7 1h-6z" fill="#FE7F0B"/>
<path transform="translate(456,566)" d="m0 0h24l-4 2-17-1v2h-3z" fill="#FF830F"/>
<path transform="translate(1017,1235)" d="m0 0 5 5 1 7h-3l-3-9z" fill="#FD780D"/>
</svg>
